<svg width="562" height="494" viewBox="0 0 562 494" fill="none" xmlns="http://www.w3.org/2000/svg">
  <rect width="562" height="494" rx="20" fill="#E8EDF3"/>
  <rect x="40" y="60" width="482" height="280" rx="16" fill="#0B1F3A"/>
  <rect x="60" y="90" width="180" height="120" rx="10" fill="#FDA400" opacity="0.2"/>
  <rect x="260" y="90" width="240" height="16" rx="8" fill="#FDA400"/>
  <rect x="260" y="120" width="200" height="12" rx="6" fill="#D1D5DC" opacity="0.5"/>
  <rect x="260" y="145" width="160" height="12" rx="6" fill="#D1D5DC" opacity="0.35"/>
  <rect x="260" y="180" width="220" height="3" fill="#FDA400"/>
  <circle cx="150" cy="150" r="50" fill="#285389"/>
  <circle cx="150" cy="130" r="28" fill="#FDA400" opacity="0.35"/>
  <ellipse cx="150" cy="120" rx="22" ry="25" fill="#0B1F3A"/>
  <rect x="110" y="195" width="80" height="60" rx="30" fill="#285389"/>
  <rect x="320" y="210" width="140" height="90" rx="12" fill="#000E2B" stroke="#FDA400" stroke-width="2"/>
  <rect x="335" y="230" width="110" height="10" rx="5" fill="#FDA400"/>
  <rect x="335" y="250" width="80" height="8" rx="4" fill="#D1D5DC" opacity="0.5"/>
  <rect x="335" y="268" width="90" height="2" fill="#FDA400"/>
  <rect x="80" y="370" width="120" height="80" rx="12" fill="#FFFFFF" stroke="#E3E3E1"/>
  <rect x="100" y="395" width="80" height="8" rx="4" fill="#214169"/>
  <rect x="100" y="415" width="60" height="6" rx="3" fill="#6B7280" opacity="0.5"/>
  <rect x="221" y="370" width="120" height="80" rx="12" fill="#FFFFFF" stroke="#E3E3E1"/>
  <rect x="241" y="395" width="80" height="8" rx="4" fill="#214169"/>
  <rect x="241" y="415" width="60" height="6" rx="3" fill="#6B7280" opacity="0.5"/>
  <rect x="362" y="370" width="120" height="80" rx="12" fill="#FFFFFF" stroke="#E3E3E1"/>
  <rect x="382" y="395" width="80" height="8" rx="4" fill="#214169"/>
  <rect x="382" y="415" width="60" height="6" rx="3" fill="#6B7280" opacity="0.5"/>
</svg>
